<svg xmlns="http://www.w3.org/2000/svg" width="200" height="270" viewBox="0 0 200 270" fill="none">
<rect width="200" height="270" fill="#EBE8E5"/>
<mask id="path-1-inside-1_726_1500" fill="white">
<path d="M119.773 124.653C120.051 120.287 119.496 115.922 118.148 111.876C116.8 107.829 114.693 104.202 111.98 101.256C109.267 98.3096 106.016 96.1188 102.461 94.8418C98.9065 93.5648 95.1376 93.2336 91.4271 93.872C87.7167 94.5105 84.1576 96.1026 81.0074 98.5333C77.8572 100.964 75.1947 104.172 73.2127 107.926C71.2306 111.68 69.9786 115.886 69.5471 120.238C69.1157 124.591 69.5157 128.982 70.7181 133.094L71.196 132.893C70.0176 128.864 69.6256 124.56 70.0484 120.295C70.4712 116.029 71.6982 111.908 73.6406 108.229C75.583 104.55 78.1922 101.406 81.2794 99.0237C84.3666 96.6417 87.8545 95.0813 91.4908 94.4556C95.127 93.83 98.8206 94.1546 102.304 95.4061C105.788 96.6575 108.974 98.8045 111.633 101.692C114.292 104.579 116.356 108.134 117.677 112.099C118.998 116.065 119.542 120.342 119.27 124.621L119.773 124.653Z"/>
</mask>
<path d="M119.773 124.653C120.051 120.287 119.496 115.922 118.148 111.876C116.8 107.829 114.693 104.202 111.98 101.256C109.267 98.3096 106.016 96.1188 102.461 94.8418C98.9065 93.5648 95.1376 93.2336 91.4271 93.872C87.7167 94.5105 84.1576 96.1026 81.0074 98.5333C77.8572 100.964 75.1947 104.172 73.2127 107.926C71.2306 111.68 69.9786 115.886 69.5471 120.238C69.1157 124.591 69.5157 128.982 70.7181 133.094L71.196 132.893C70.0176 128.864 69.6256 124.56 70.0484 120.295C70.4712 116.029 71.6982 111.908 73.6406 108.229C75.583 104.55 78.1922 101.406 81.2794 99.0237C84.3666 96.6417 87.8545 95.0813 91.4908 94.4556C95.127 93.83 98.8206 94.1546 102.304 95.4061C105.788 96.6575 108.974 98.8045 111.633 101.692C114.292 104.579 116.356 108.134 117.677 112.099C118.998 116.065 119.542 120.342 119.27 124.621L119.773 124.653Z" stroke="#B5B5B5" stroke-width="4" mask="url(#path-1-inside-1_726_1500)"/>
<path d="M137 176.142L72.9846 177.827L64 163.227L65.6846 112.688L120.154 109.88L137 117.18V176.142Z" fill="white"/>
<path d="M72.9846 120.55V177.827M72.9846 120.55L137 117.18M72.9846 120.55L65.6846 112.688M72.9846 177.827L137 176.142V117.18M72.9846 177.827L64 163.227L65.6846 112.688M137 117.18L120.154 109.88L65.6846 112.688" stroke="#B5B5B5" stroke-width="0.715223"/>
<mask id="path-4-inside-2_726_1500" fill="white">
<path d="M130.501 127.514C130.779 123.147 130.224 118.783 128.876 114.737C127.528 110.69 125.421 107.062 122.708 104.116C119.995 101.17 116.744 98.9797 113.189 97.7027C109.635 96.4257 105.866 96.0944 102.155 96.7328C98.4447 97.3713 94.8856 98.9635 91.7354 101.394C88.5852 103.825 85.9227 107.033 83.9407 110.787C81.9586 114.541 80.7066 118.746 80.2752 123.099C79.8437 127.452 80.2437 131.843 81.4461 135.955L81.924 135.754C80.7456 131.724 80.3536 127.421 80.7764 123.155C81.1992 118.89 82.4262 114.768 84.3687 111.09C86.3111 107.411 88.9203 104.267 92.0075 101.885C95.0946 99.5025 98.5826 97.9422 102.219 97.3165C105.855 96.6908 109.549 97.0154 113.032 98.2669C116.516 99.5184 119.702 101.665 122.361 104.552C125.02 107.44 127.084 110.995 128.405 114.96C129.726 118.926 130.27 123.203 129.998 127.482L130.501 127.514Z"/>
</mask>
<path d="M130.501 127.514C130.779 123.147 130.224 118.783 128.876 114.737C127.528 110.69 125.421 107.062 122.708 104.116C119.995 101.17 116.744 98.9797 113.189 97.7027C109.635 96.4257 105.866 96.0944 102.155 96.7328C98.4447 97.3713 94.8856 98.9635 91.7354 101.394C88.5852 103.825 85.9227 107.033 83.9407 110.787C81.9586 114.541 80.7066 118.746 80.2752 123.099C79.8437 127.452 80.2437 131.843 81.4461 135.955L81.924 135.754C80.7456 131.724 80.3536 127.421 80.7764 123.155C81.1992 118.89 82.4262 114.768 84.3687 111.09C86.3111 107.411 88.9203 104.267 92.0075 101.885C95.0946 99.5025 98.5826 97.9422 102.219 97.3165C105.855 96.6908 109.549 97.0154 113.032 98.2669C116.516 99.5184 119.702 101.665 122.361 104.552C125.02 107.44 127.084 110.995 128.405 114.96C129.726 118.926 130.27 123.203 129.998 127.482L130.501 127.514Z" stroke="#B5B5B5" stroke-width="4" mask="url(#path-4-inside-2_726_1500)"/>
<circle cx="81.523" cy="135.986" r="1.07283" fill="#B5B5B5"/>
<circle cx="130.158" cy="127.403" r="1.07283" fill="#B5B5B5"/>
</svg>